<svg width="32" height="32" viewBox="0 0 32 32" fill="none" xmlns="http://www.w3.org/2000/svg">
<mask id="mask0_310_445" style="mask-type:luminance" maskUnits="userSpaceOnUse" x="4" y="6" width="28" height="21">
<path d="M32 6H4.6355V26.711H32V6Z" fill="white"/>
</mask>
<g mask="url(#mask0_310_445)">
<path d="M12.4112 14.4323V23.7523H21.3832C28.5607 23.2197 30.2056 17.8348 30.2056 14.4323C30.2056 8.58887 25.9439 6 21.3832 6C16.8224 6 12.4112 9.69839 12.4112 14.4323Z" fill="#457ACA" fill-opacity="0.8"/>
<path d="M20.0374 20.4193V26.711H26.0695C30.8949 26.3515 32 22.7167 32 20.4193C32 16.4753 29.1349 14.7282 26.0695 14.7282C23.0041 14.7282 20.0374 17.2254 20.0374 20.4193Z" fill="#87ADE6" fill-opacity="0.3"/>
<path d="M12.2721 11.3257C8.72821 11.3257 5.39363 13.1364 4.74914 17.1721H5.15288V17.7638H4.67438C4.64896 18.0449 4.6355 18.3334 4.6355 18.6337C4.6355 19.4192 4.73868 20.3261 5.00335 21.2418V21.1663H5.75101V21.906H5.22466C6.10092 24.2079 8.11213 26.4018 12.2706 26.711H20.0359V18.6337C20.0359 14.5314 16.2183 11.3257 12.2706 11.3257H12.2721ZM8.74167 17.7638V19.0952H7.39587V17.7638H8.74167ZM7.69494 17.0241H6.79774V16.1365H7.69494V17.0241ZM6.34914 14.2134H7.09681V14.953H6.34914V14.2134ZM5.45195 19.0952V18.2076H6.34914V19.0952H5.45195ZM6.79774 22.6457H6.19961V22.0539H6.79774V22.6457ZM6.49868 21.3143V19.8349H7.994V21.3143H6.49868ZM7.5454 24.5688H7.09681V24.125H7.5454V24.5688ZM8.8912 23.3854H7.84447V22.3498H8.8912V23.3854ZM10.9847 21.6101H9.04073V19.687H10.9847V21.6101ZM11.1342 17.7638H9.19026V15.8406H11.1342V17.7638Z" fill="#81A5DC" fill-opacity="0.8"/>
<path d="M6.13085 24.0481H5.83179V24.344H6.13085V24.0481Z" fill="#81A5DC"/>
</g>
<path d="M3.88787 25.0837H3.58881V25.3796H3.88787V25.0837Z" fill="#457ACA"/>
<path d="M3.14019 23.7523H2.84113V24.0482H3.14019V23.7523Z" fill="#457ACA"/>
<path d="M5.23362 23.1605H4.18689V24.1961H5.23362V23.1605Z" fill="#457ACA"/>
<path d="M1.79441 15.9117H0.897217V16.7993H1.79441V15.9117Z" fill="#81A5DC" fill-opacity="0.8"/>
<path d="M4.33647 14.4323H3.58881V15.172H4.33647V14.4323Z" fill="#457ACA" fill-opacity="0.4"/>
<path d="M0.897203 17.539H0.299072V18.1307H0.897203V17.539Z" fill="#457ACA" fill-opacity="0.4"/>
<path d="M1.19627 19.758H0.299072V20.6456H1.19627V19.758Z" fill="#81A5DC" fill-opacity="0.8"/>
<path d="M1.34581 21.0894H0.598145V21.8291H1.34581V21.0894Z" fill="#457ACA" fill-opacity="0.4"/>
<path d="M0.598131 22.2729H0V22.8647H0.598131V22.2729Z" fill="#81A5DC" fill-opacity="0.8"/>
<path d="M2.39251 24.344H1.94391V24.7878H2.39251V24.344Z" fill="#457ACA" fill-opacity="0.4"/>
<path d="M2.69157 22.2729H1.64484V23.3085H2.69157V22.2729Z" fill="#457ACA"/>
<path d="M2.69162 17.8348H1.34583V19.1663H2.69162V17.8348Z" fill="#81A5DC" fill-opacity="0.8"/>
<path d="M4.18691 19.758H2.24298V21.6812H4.18691V19.758Z" fill="#457ACA" fill-opacity="0.4"/>
<path d="M4.48598 15.9117H2.69159V17.6869H4.48598V15.9117Z" fill="#457ACA"/>
</svg>
