<svg width="498" height="93" viewBox="0 0 498 93" fill="none" xmlns="http://www.w3.org/2000/svg">
<g clip-path="url(#clip0_585_607)">
<path d="M250.075 16.0425L232.03 81.8068H222.353L207.937 29.4943L193.521 81.8068H183.944L165.899 16.0425H173.46L188.783 71.4439L204.106 16.0425H211.868L227.191 71.4439L242.515 16.0425H250.075Z" fill="#457ACA"/>
<path d="M301.587 49.6221L314.188 81.7071H306.325C306.325 81.7071 296.547 57.195 296.647 57.195C293.119 57.5936 289.591 58.3907 286.365 59.5864C273.26 64.4689 265.8 74.7321 262.372 80.91L262.07 81.7071H254.207L255.618 78.12L255.517 78.0204C255.618 77.9207 255.719 77.8211 255.719 77.7214L280.115 16.0425H288.28L300.781 47.7289L293.119 48.2271L284.147 25.7079C284.147 25.7079 270.639 60.1843 270.538 60.1843C274.57 56.9957 279.006 54.5046 283.845 52.7111C287.373 51.4157 291.305 50.4193 295.135 50.1203L301.587 49.6221Z" fill="#457ACA"/>
<path d="M318.698 43.245V16.0425H326.058V43.245H318.698ZM371.624 16.0425V52.5118H326.058V81.7071H318.698V45.2379H364.264V16.0425H371.624ZM364.264 81.8068V54.6043H371.624V81.8068H364.264Z" fill="#457ACA"/>
<path d="M400.271 16.0425C418.618 16.0425 433.538 30.7896 433.538 48.9246C433.538 67.0596 418.618 81.7071 400.271 81.7071H376.782V25.4089H384.141V74.4332H400.271C414.485 74.4332 426.078 62.9743 426.078 48.9246C426.078 34.7754 414.485 23.3164 400.271 23.3164H376.782V16.0425H400.271Z" fill="#457ACA"/>
<path d="M485.092 49.6221L497.693 81.7071H489.83C489.83 81.7071 480.051 57.195 480.152 57.195C476.624 57.5936 473.095 58.3907 469.869 59.5864C456.764 64.4689 449.304 74.7321 445.877 80.91L445.574 81.7071H437.711L439.123 78.12L439.022 78.0204C439.122 77.9207 439.223 77.8211 439.223 77.7214L463.619 16.0425H471.785L484.285 47.7289L476.624 48.2271L467.652 25.7079C467.652 25.7079 454.143 60.1843 454.042 60.1843C458.075 56.9957 462.51 54.5046 467.349 52.7111C470.878 51.4157 474.809 50.4193 478.64 50.1203L485.092 49.6221Z" fill="#457ACA"/>
<mask id="mask0_585_607" style="mask-type:luminance" maskUnits="userSpaceOnUse" x="20" y="0" width="124" height="93">
<path d="M143.822 0H20.834V93H143.822V0Z" fill="white"/>
</mask>
<g mask="url(#mask0_585_607)">
<path d="M55.7814 37.8643V79.7143H96.1053C128.364 77.3229 135.757 53.1429 135.757 37.8643C135.757 11.625 116.603 0 96.1053 0C75.6073 0 55.7814 16.6071 55.7814 37.8643Z" fill="#457ACA" fill-opacity="0.8"/>
<path d="M90.0566 64.7479V93H117.168C138.855 91.3858 143.822 75.0643 143.822 64.7479C143.822 47.0381 130.945 39.1929 117.168 39.1929C103.39 39.1929 90.0566 50.406 90.0566 64.7479Z" fill="#87ADE6" fill-opacity="0.3"/>
<path d="M55.1563 23.9143C39.2284 23.9143 24.2414 32.0451 21.3448 50.1669H23.1593V52.824H21.0087C20.8945 54.0861 20.834 55.3815 20.834 56.73C20.834 60.2574 21.2977 64.3294 22.4873 68.4414V68.1026H25.8476V71.424H23.4819C27.4202 81.7603 36.4595 91.6116 55.1496 93H90.0499V56.73C90.0499 38.3094 72.8921 23.9143 55.1496 23.9143H55.1563ZM39.2889 52.824V58.8026H33.2403V52.824H39.2889ZM34.5844 49.5026H30.552V45.5169H34.5844V49.5026ZM28.5358 36.8811H31.8962V40.2026H28.5358V36.8811ZM24.5035 58.8026V54.8169H28.5358V58.8026H24.5035ZM30.552 74.7454H27.8638V72.0883H30.552V74.7454ZM29.2079 68.7669V62.124H35.9286V68.7669H29.2079ZM33.9124 83.3811H31.8962V81.3883H33.9124V83.3811ZM39.9609 78.0669H35.2565V73.4169H39.9609V78.0669ZM49.3699 70.0954H40.633V61.4597H49.3699V70.0954ZM50.0419 52.824H41.3051V44.1883H50.0419V52.824Z" fill="#81A5DC" fill-opacity="0.8"/>
<path d="M27.5546 81.0429H26.2104V82.3714H27.5546V81.0429Z" fill="#81A5DC"/>
</g>
<path d="M17.4736 85.6929H16.1295V87.0214H17.4736V85.6929Z" fill="#457ACA"/>
<path d="M14.1134 79.7143H12.7693V81.0429H14.1134V79.7143Z" fill="#457ACA"/>
<path d="M23.5223 77.0571H18.8179V81.7071H23.5223V77.0571Z" fill="#457ACA"/>
<path d="M8.06474 44.5071H4.03235V48.4929H8.06474V44.5071Z" fill="#81A5DC" fill-opacity="0.8"/>
<path d="M19.4898 37.8643H16.1295V41.1857H19.4898V37.8643Z" fill="#457ACA" fill-opacity="0.4"/>
<path d="M4.03238 51.8143H1.34412V54.4714H4.03238V51.8143Z" fill="#457ACA" fill-opacity="0.4"/>
<path d="M5.3765 61.7786H1.34412V65.7643H5.3765V61.7786Z" fill="#81A5DC" fill-opacity="0.8"/>
<path d="M6.04856 67.7571H2.68823V71.0786H6.04856V67.7571Z" fill="#457ACA" fill-opacity="0.4"/>
<path d="M2.68826 73.0714H0V75.7286H2.68826V73.0714Z" fill="#81A5DC" fill-opacity="0.8"/>
<path d="M10.753 82.3714H8.73682V84.3643H10.753V82.3714Z" fill="#457ACA" fill-opacity="0.4"/>
<path d="M12.0972 73.0714H7.3927V77.7214H12.0972V73.0714Z" fill="#457ACA"/>
<path d="M12.0972 53.1429H6.04858V59.1214H12.0972V53.1429Z" fill="#81A5DC" fill-opacity="0.8"/>
<path d="M18.8178 61.7786H10.0809V70.4143H18.8178V61.7786Z" fill="#457ACA" fill-opacity="0.4"/>
<path d="M20.1619 44.5071H12.0972V52.4786H20.1619V44.5071Z" fill="#457ACA"/>
<path d="M156.658 69.2385V70.6933H151.84V82.3913H150.368V70.6933H145.569V69.2385H156.658Z" fill="#457ACA"/>
<path d="M159.053 69.2385V72.726C158.891 72.8256 158.75 72.9253 158.629 73.0249C158.206 73.3239 157.863 73.7025 157.581 74.1409C157.561 74.1409 157.581 69.2385 157.581 69.2385H159.053ZM165.021 76.5124V82.3714H163.549V76.5124C163.549 75.2769 162.541 74.2804 161.291 74.2804C160.061 74.2804 159.053 75.2769 159.053 76.5124V82.3714H157.581V76.5124C157.581 74.4797 159.234 72.8256 161.291 72.8256C163.347 72.8256 165.021 74.4797 165.021 76.5124Z" fill="#457ACA"/>
<path d="M173.67 79.4619C173.67 79.4619 175.222 79.4619 175.202 79.4619C174.476 81.1757 172.762 82.3714 170.766 82.3714C169.395 82.3714 168.145 81.8134 167.258 80.8967C167.056 80.6775 166.895 80.4583 166.734 80.2391C166.573 79.9999 166.452 79.7608 166.331 79.5017C166.089 78.9238 165.948 78.2662 165.948 77.6085C165.948 74.958 168.105 72.8257 170.766 72.8257C172.157 72.8257 173.387 73.4036 174.274 74.3203C174.476 74.5196 174.637 74.7388 174.799 74.9779C174.92 75.1573 175.041 75.3566 175.141 75.5559L168.306 80.0199L168.488 80.1793C169.657 81.1957 171.391 81.2953 172.682 80.4583C173.065 80.1992 173.407 79.8604 173.67 79.4619ZM167.48 78.6448L167.56 78.8839L173.226 75.1972L173.045 75.0178C172.44 74.4997 171.633 74.1808 170.766 74.1808C168.851 74.1808 167.319 75.7153 167.319 77.6085C167.319 77.9672 167.359 78.3259 167.48 78.6448Z" fill="#457ACA"/>
</g>
<defs>
<clipPath id="clip0_585_607">
<rect width="498" height="93" fill="white"/>
</clipPath>
</defs>
</svg>
